<svg id="_0561_paypal" xmlns="http://www.w3.org/2000/svg" xmlns:xlink="http://www.w3.org/1999/xlink" viewBox="0 0 500 500" data-imageid="paypal-33" imageName="Paypal" class="illustrations_image" style="width: 164px;"><defs><style>.cls-1_paypal-33{fill:url(#linear-gradient);}.cls-1_paypal-33,.cls-2_paypal-33,.cls-3_paypal-33,.cls-4_paypal-33,.cls-5_paypal-33,.cls-6_paypal-33,.cls-7_paypal-33,.cls-8_paypal-33,.cls-9_paypal-33,.cls-10_paypal-33,.cls-11_paypal-33,.cls-12_paypal-33,.cls-13_paypal-33,.cls-14_paypal-33,.cls-15_paypal-33,.cls-16_paypal-33,.cls-17_paypal-33,.cls-18_paypal-33,.cls-19_paypal-33{stroke-width:0px;}.cls-2_paypal-33{isolation:isolate;opacity:.18;}.cls-2_paypal-33,.cls-19_paypal-33{fill:#68e1fd;}.cls-3_paypal-33{fill:url(#linear-gradient-11-paypal-33);}.cls-4_paypal-33{fill:url(#linear-gradient-12-paypal-33);}.cls-5_paypal-33{fill:url(#linear-gradient-13-paypal-33);}.cls-6_paypal-33{fill:url(#linear-gradient-10-paypal-33);}.cls-7_paypal-33{fill:url(#linear-gradient-14-paypal-33);}.cls-8_paypal-33{fill:url(#linear-gradient-4-paypal-33);}.cls-9_paypal-33{fill:url(#linear-gradient-2-paypal-33);}.cls-10_paypal-33{fill:url(#linear-gradient-3-paypal-33);}.cls-11_paypal-33{fill:url(#linear-gradient-8-paypal-33);}.cls-12_paypal-33{fill:url(#linear-gradient-9-paypal-33);}.cls-13_paypal-33{fill:url(#linear-gradient-7-paypal-33);}.cls-14_paypal-33{fill:url(#linear-gradient-5-paypal-33);}.cls-15_paypal-33{fill:url(#linear-gradient-6-paypal-33);}.cls-16_paypal-33{fill:#473f47;}.cls-17_paypal-33{fill:#fff;}.cls-18_paypal-33{fill:#ffb4a3;}</style><linearGradient id="linear-gradient-paypal-33" x1="-957.12" y1="-364.74" x2="-961.91" y2="-207.08" gradientTransform="translate(1265.41 677.51)" gradientUnits="userSpaceOnUse"><stop offset=".01" stop-color="#231f20"/><stop offset=".84" stop-color="#231f20" stop-opacity="0"/></linearGradient><linearGradient id="linear-gradient-2-paypal-33" x1="-989.8" y1="-603.33" x2="-994.95" y2="-364.8" gradientTransform="translate(1265.41 677.51)" xlink:href="#linear-gradient-paypal-33"/><linearGradient id="linear-gradient-3-paypal-33" x1="-989.8" y1="-588.62" x2="-994.95" y2="-350.1" gradientTransform="translate(1265.41 677.51)" xlink:href="#linear-gradient-paypal-33"/><linearGradient id="linear-gradient-4-paypal-33" x1="-989.8" y1="-573.91" x2="-994.95" y2="-335.38" gradientTransform="translate(1265.41 677.51)" xlink:href="#linear-gradient-paypal-33"/><linearGradient id="linear-gradient-5-paypal-33" x1="-989.8" y1="-559.19" x2="-994.95" y2="-320.67" gradientTransform="translate(1265.41 677.51)" xlink:href="#linear-gradient-paypal-33"/><linearGradient id="linear-gradient-6-paypal-33" x1="-989.8" y1="-544.49" x2="-994.95" y2="-305.96" gradientTransform="translate(1265.41 677.51)" xlink:href="#linear-gradient-paypal-33"/><linearGradient id="linear-gradient-7-paypal-33" x1="-1233.18" y1="-554.27" x2="-754.31" y2="-182.74" gradientTransform="translate(1265.41 677.51)" gradientUnits="userSpaceOnUse"><stop offset="0" stop-color="#231f20"/><stop offset=".08" stop-color="#231f20" stop-opacity=".69"/><stop offset=".21" stop-color="#231f20" stop-opacity=".32"/><stop offset="1" stop-color="#231f20" stop-opacity="0"/></linearGradient><linearGradient id="linear-gradient-8-paypal-33" x1="-1217.72" y1="-469.23" x2="-712.66" y2="-297.91" gradientTransform="translate(1265.41 677.51)" gradientUnits="userSpaceOnUse"><stop offset="0" stop-color="#231f20"/><stop offset=".13" stop-color="#231f20" stop-opacity=".69"/><stop offset=".25" stop-color="#231f20" stop-opacity=".32"/><stop offset="1" stop-color="#231f20" stop-opacity="0"/></linearGradient><linearGradient id="linear-gradient-9-paypal-33" x1="-973.99" y1="-358.51" x2="-811.5" y2="-288.67" xlink:href="#linear-gradient-paypal-33"/><linearGradient id="linear-gradient-10-paypal-33" x1="-920.88" y1="-301.03" x2="-884.46" y2="-301.03" xlink:href="#linear-gradient-8-paypal-33"/><linearGradient id="linear-gradient-11-paypal-33" x1="-971.87" y1="-356.22" x2="-759.84" y2="-217.73" xlink:href="#linear-gradient-8-paypal-33"/><linearGradient id="linear-gradient-12-paypal-33" x1="-966.83" y1="-426.5" x2="-918.64" y2="-413.64" xlink:href="#linear-gradient-8-paypal-33"/><linearGradient id="linear-gradient-13-paypal-33" x1="-960.69" y1="-319.73" x2="-875.8" y2="-326.19" xlink:href="#linear-gradient-8-paypal-33"/><linearGradient id="linear-gradient-14-paypal-33" x1="-729.76" y1="-442.55" x2="-1000.5" y2="-617.87" xlink:href="#linear-gradient-7-paypal-33"/></defs><g id="background_paypal-33"><path class="cls-2_paypal-33 targetColor" d="M275.88,50.41c-1.36,0-2.86.14-4.31.25-28.78,2-56.62,11.12-81,26.55-4.84,3.09-9.51,6.44-13.98,10.03-13.11,10.52-24.87,23.38-31.1,38.98-3.24,8.18-4.91,16.78-6.81,25.31-5.23,22.6-13.63,45.93-31.77,60.38-22.61,18.02-50.1,24.21-69.76,46.85-19.44,22.39-32.98,48.25-32.94,78.51,0,75.33,65.06,101.5,125.95,120.39,72.02,22.43,148.63,32.71,223.75,22.5,31.83-4.33,64.06-12.69,89.96-31.57,38.87-28.24,57.56-80.06,49.49-126.93-4.09-23.78-11.29-45.28-13.23-69.72-2.54-31.87,2.82-64.54-6.52-95.67-15.54-51.64-69.51-85.4-120.23-94.99-25.9-4.88-50.8-11.91-77.49-10.88Z" style="fill: rgb(108, 40, 201);"/><path class="cls-1_paypal-33" d="M436.07,436.49c.6.28,1.14.67,1.59,1.14,1.12,1.09,1.34,2.82.53,4.16-.85.85-1.99,1.34-3.19,1.36l-42.25,6.57c-7.39,1.14-14.83,2.29-22.28,1.92-3.53-.18-7.03-.69-10.45-1.54-6.37-1.57-12.43-4.27-18.86-5.45-6.43-1.19-12.84-.41-19.27-.82-7.69-.48-14.99-3.63-22.48-5.45-10.43-2.45-21.37-.56-31.44-3.34-10.54-2.84-21.38-4.48-32.29-4.89-11.07-.5-22.15-.18-33.22-.16-5.55,0-11.09,0-16.64-.31-3.98-.19-11.67-2.56-15.31-1.36,16.14-5.34,33.35-5.81,50.28-6.15,14.91-.28,29.82-.5,44.72-.65,18.47-.18,37.1-.23,55.16,3.73l-25.04,5.79c12.91,2.98,26.13,4.43,39.38,4.32l16.78-.29c6.23-.1,12.46,0,18.69,0,2.63,0,5.53-.45,8.18-.26s5.52,1.59,8.18,2.56c1.49.7,3.13,1,4.77.86,1.47-.45,2.85-1.14,4.09-2.06,5.23-3.12,11.6-3.24,17.64-3.08,6.89,0,13.76.85,20.44,2.52.79.22,1.57.51,2.3.87Z"/></g><g id="phone_paypal-33"><rect class="cls-19_paypal-33 targetColor" x="175.17" y="134.5" width="135.3" height="270.06" rx="19.76" ry="19.76" style="fill: rgb(108, 40, 201);"/><rect class="cls-16_paypal-33" x="177.84" y="137.89" width="129.96" height="262.81" rx="19.11" ry="19.11"/><path class="cls-17_paypal-33" d="M304.27,159.51v216.89c.06,10.08-8.06,18.3-18.14,18.36h-86.47c-3.17,0-6.28-.83-9.02-2.43-5.67-3.3-9.16-9.37-9.15-15.93v-216.89c-.05-10.08,8.08-18.3,18.17-18.36h14.62v2.73c.04,3.54,2.18,6.72,5.45,8.08,1.06.42,2.2.64,3.34.64h40.18c4.87-.03,8.8-3.99,8.79-8.86v-2.59h14.15c4.68,0,9.18,1.83,12.54,5.1,3.57,3.49,5.56,8.27,5.53,13.26Z"/><path class="cls-19_paypal-33 targetColor" d="M304.27,159.51v64.52h-122.83v-64.52c-.05-10.09,8.1-18.31,18.2-18.36,0,0,.02,0,.03,0h14.65v2.73c.04,3.54,2.18,6.72,5.45,8.08,1.06.42,2.2.64,3.34.64h40.18c4.87-.03,8.8-3.99,8.79-8.86v-2.59h14.15c4.68,0,9.18,1.83,12.54,5.1,3.56,3.49,5.54,8.28,5.51,13.26Z" style="fill: rgb(108, 40, 201);"/><rect class="cls-17_paypal-33" x="248.2" y="200.7" width="41.37" height="6.47" rx="3.19" ry="3.19"/><rect class="cls-9_paypal-33" x="245.17" y="257.56" width="52.83" height="5.41" rx="2.66" ry="2.66"/><rect class="cls-10_paypal-33" x="245.17" y="272.28" width="52.83" height="5.41" rx="2.66" ry="2.66"/><rect class="cls-8_paypal-33" x="245.17" y="286.99" width="52.83" height="5.41" rx="2.66" ry="2.66"/><rect class="cls-14_paypal-33" x="245.17" y="301.69" width="52.83" height="5.41" rx="2.66" ry="2.66"/><rect class="cls-15_paypal-33" x="245.17" y="316.4" width="52.83" height="5.41" rx="2.66" ry="2.66"/></g><g id="paypal_paypal-33"><path class="cls-13_paypal-33" d="M175.13,312.8h44.38c6.21-.1,11.17-5.22,11.07-11.44v-97.25c.1-6.21-4.86-11.32-11.06-11.42,0,0,0,0,0,0h-44.38v120.11Z"/><rect class="cls-17_paypal-33" x="108.45" y="192.7" width="114.42" height="112.61" rx="10.07" ry="10.07"/><g id="vXPR49_paypal-33"><path class="cls-19_paypal-33 targetColor" d="M152.48,274.98h-12.27c-.97.02-1.77-.76-1.79-1.73,0,0,0,0,0,0-.01-.14-.01-.28,0-.42l2.45-16.06c.77-5.06,1.54-10.11,2.32-15.16.6-3.98,1.2-7.96,1.81-11.94.56-3.64,1.1-7.28,1.66-10.9.09-1.24.96-2.29,2.15-2.62.26-.05.52-.08.78-.08h20.66c2.77-.02,5.52.36,8.18,1.14,1.05.31,2.06.74,3.01,1.27,3.26,1.78,5.49,5,6.01,8.68.25,1.62.25,3.27,0,4.89-.06.3-.09.6-.07.9-.06.07-.09.16-.1.26-.26,1.63-.63,3.24-1.12,4.81-1.08,3.65-3.1,6.94-5.87,9.54-1.49,1.33-3.18,2.41-5,3.2-1.69.74-3.46,1.28-5.27,1.59-1.41.27-2.84.42-4.28.45h-7.46c-1.47-.04-2.73,1.03-2.93,2.48-.22,1.23-.4,2.47-.57,3.71-.25,1.58-.46,3.18-.71,4.77-.25,1.59-.56,3.58-.85,5.45l-.76,5.75Z" style="fill: rgb(108, 40, 201);"/><path class="cls-11_paypal-33" d="M152.48,274.98h-12.27c-.97.02-1.77-.76-1.79-1.73,0,0,0,0,0,0-.01-.14-.01-.28,0-.42l2.45-16.06c.77-5.06,1.54-10.11,2.32-15.16.6-3.98,1.2-7.96,1.81-11.94.56-3.64,1.1-7.28,1.66-10.9.09-1.24.96-2.29,2.15-2.62.26-.05.52-.08.78-.08h20.66c2.77-.02,5.52.36,8.18,1.14,1.05.31,2.06.74,3.01,1.27,3.26,1.78,5.49,5,6.01,8.68.25,1.62.25,3.27,0,4.89-.06.3-.09.6-.07.9-.06.07-.09.16-.1.26-.26,1.63-.63,3.24-1.12,4.81-1.08,3.65-3.1,6.94-5.87,9.54-1.49,1.33-3.18,2.41-5,3.2-1.69.74-3.46,1.28-5.27,1.59-1.41.27-2.84.42-4.28.45h-7.46c-1.47-.04-2.73,1.03-2.93,2.48-.22,1.23-.4,2.47-.57,3.71-.25,1.58-.46,3.18-.71,4.77-.25,1.59-.56,3.58-.85,5.45l-.76,5.75Z"/><path class="cls-19_paypal-33 targetColor" d="M152.48,274.98l.9-5.78c.29-1.8.57-3.58.85-5.45.25-1.59.46-3.19.71-4.77.18-1.24.35-2.48.57-3.71.2-1.45,1.46-2.52,2.93-2.48h7.46c1.44-.03,2.87-.18,4.28-.45,1.82-.32,3.59-.85,5.27-1.59,1.83-.79,3.52-1.88,5-3.2,2.77-2.6,4.8-5.9,5.87-9.54.49-1.58.86-3.18,1.12-4.81,0-.09.04-.19.1-.26,1.33.65,2.47,1.64,3.31,2.86,1.08,1.52,1.73,3.31,1.89,5.17.34,3.61-.12,7.24-1.36,10.64-.86,2.63-2.3,5.03-4.23,7.02-2.2,2.2-4.98,3.75-8.01,4.47-2.3.56-4.66.83-7.02.8h-1.36c-1.21-.01-2.25.87-2.43,2.07-.29,1.58-.53,3.19-.78,4.78-.4,2.55-.78,5.11-1.16,7.66l-.29,1.68c-.07.41-.22.81-.45,1.16-.28.45-.77.71-1.29.7h-11.45c-.29,0-.6.11-.82-.2-.26-.33-.37-.75-.33-1.17.15-.99.31-1.99.46-2.98s.11-1.74.25-2.6Z" style="fill: rgb(108, 40, 201);"/></g></g><g id="character_paypal-33"><path class="cls-18_paypal-33" d="M385.49,418.75s4.17,3.93,3.35,6.72-4.57,4.65-5.08,8.06c-.52,3.41-2.54,5.26-4.36,5.26h-8.72s-1.36-2.4,1.91-3.12c3.27-.72,4.47-4.73,4.27-8.45-.08-2.89.03-5.79.31-8.67l6.91-1.66,1.42,1.87Z"/><path class="cls-18_paypal-33" d="M350.22,420.41s1.5,16.63-.33,17.57h-23.47s0-2.79,3.76-3.41c3.76-.61,10.37-2.89,11.49-7.96,1.12-5.07,8.55-6.2,8.55-6.2Z"/><path class="cls-18_paypal-33" d="M366.9,301.11c-4.81-11.16-7.76-14.35-7.2-17.83.42-2.58-1.28-48.03-1.28-48.03-.57-.19-1.72-.35-2.34-.49-2-.46-3.62-1.92-4.29-3.86-1.04-3.32-1.53-6.79-1.46-10.26l-.61.12-10.37,2.13s.23,3.37.23,6.54v.08c.05,2.72-1.7,5.15-4.31,5.96l-2.45.72c-2.38,7.39-3.9,15.03-4.54,22.78-.72,11.53,6.94,16.55,0,39.61-7.18,23.53,41.3,8.68,38.63,2.54Z"/><path class="cls-19_paypal-33 targetColor" d="M359.7,283.27s10.29,14.27,11.26,23.91c.97,9.64,1.5,43.51,3.54,52.91,2.04,9.4,9.54,27.49,9.54,56.8-.71,1.22-1.84,2.14-3.19,2.58-.92.32-1.86.59-2.81.8-2.01.46-4.07-.54-4.95-2.41-5.07-10.56-21.26-44.62-22.09-51.68-.59-5-5.7-38.16-16.85-57.55-2.73-4.66,1.65-23.17,1.65-23.17l23.89-2.18Z" style="fill: rgb(108, 40, 201);"/><path class="cls-12_paypal-33" d="M384.06,416.96c-.69,1.2-1.8,2.1-3.11,2.54h-.01c-.92.32-1.87.59-2.82.8-2.01.46-4.07-.54-4.93-2.41-5.08-10.56-21.26-44.62-22.09-51.7-1.49-10.47-3.68-20.83-6.54-31.01-2.59-9.25-6-18.89-10.36-26.46-2.73-4.68,1.65-23.17,1.65-23.17l23.87-2.17s10.29,14.26,11.26,23.91c.97,9.65,1.5,43.52,3.54,52.91,2.04,9.39,9.55,27.35,9.55,56.75Z"/><path class="cls-6_paypal-33" d="M380.94,419.43h0c-.92.32-1.87.59-2.82.8-2.01.46-4.07-.54-4.93-2.41-5.08-10.56-21.26-44.62-22.09-51.7-1.47-10.49-3.64-20.86-6.49-31.06,1.44-2.39,4.53-3.16,6.92-1.73h.08c4.7,2.56,6.34,11.86,7.16,16.64,1.27,7.63.78,15.73,3.88,22.79,1.66,3.79,4.32,7.13,5.56,11.09.74,3.27,1.22,6.59,1.42,9.94.92,6.73,3.61,13.1,7.8,18.45,1.7,2.14,3.75,4.47,3.52,7.18Z"/><path class="cls-18_paypal-33" d="M339.34,222.87s.23,3.37.23,6.54c5.82-.16,8.89-5.63,10.14-8.67l-10.37,2.13Z"/><path class="cls-18_paypal-33" d="M337.5,225.76c.08.09.18.17.29.23.29.16.62.24.95.22,1.32-.03,2.62-.29,3.84-.76,1.89-.53,3.68-1.37,5.3-2.47,1.64-1.23,2.77-3.01,3.19-5.02.23-1.81.29-3.63.19-5.45,0-2.52.34-5.66-1.12-7.86-1.36-2-3.8-2.49-5.98-2.62-3.05-.19-6.9-.15-9.3,2.14-.69.68-1.21,1.52-1.53,2.44-.44,1.78-.56,3.63-.35,5.45,0,1.48-.09,2.97-.25,4.44-.04.27-.04.55,0,.82.16.4.41.76.75,1.04,1.8,1.96,2.11,4.95,3.71,7.09.09.12.19.22.3.31Z"/><path class="cls-16_paypal-33" d="M337.91,201.79s3.76,10.36,9.54,11.9,8.29-.07,8.29-.07c-2.88-2.61-4.77-6.14-5.36-9.98,0,0-9.64-6.79-12.47-1.85Z"/><path class="cls-18_paypal-33" d="M340.39,220.41c-.71.82-1.76,1.26-2.85,1.19-.91-.06-1.72-.62-2.11-1.44,1.64-.39,3.37-.3,4.96.26Z"/><path class="cls-18_paypal-33" d="M333.24,282.11l-2.96-.91s-.08-.22-.22-.63c.97.69,2.04,1.21,3.18,1.54Z"/><path class="cls-19_paypal-33 targetColor" d="M331.1,283.92s-6.75,21.69-7.18,29.07c-.44,7.39,12.91,104.95,13.44,108.32.53,3.37,4.38,5.25,4.38,5.25,1.34.67,2.88.8,4.31.34,1.7-.36,3.29-1.13,4.62-2.25,0,0,5.25-69.51,2-94.4-1.98-15.37-3.09-30.84-3.3-46.34h-18.26Z" style="fill: rgb(108, 40, 201);"/><path class="cls-3_paypal-33" d="M350.65,424.66c-1.34,1.11-2.93,1.88-4.63,2.24-1.26.38-2.6.34-3.83-.12-.17-.05-.33-.13-.48-.22,0,0-3.86-2.04-4.36-5.25-.5-3.2-13.86-100.93-13.43-108.32.44-7.39,7.17-29.07,7.17-29.07h18.28c.2,15.5,1.3,30.97,3.28,46.34,3.24,24.85-2,94.4-2,94.4Z"/><path class="cls-17_paypal-33" d="M368.22,266.51c-.22,4.09-4.18,9.45-4.74,10.79-1.36,3.35-3,3.88-3,3.88.44,1.36.67,2.77.68,4.2,0,0-14.52,3.79-25.73,2.03-1.71-.26-3.38-.69-5-1.28-.85-1.74-.99-3.73-.41-5.57-1.06-3.26-5.71-18.39-3.49-27.33.53-2.17,1.16-4.31,1.87-6.45.63-1.87.94-3.73,1.55-5.6.41-.85.54-1.8.38-2.73-.18-.56-.67-.96-1.25-1.02-.3-.03-.6.11-.78.35,1.43-3.53,5.27-5.19,8.76-6.54.63-.28,1.3-.43,1.99-.46.94.12,1.84.48,2.62,1.04.78.45,1.57.86,2.39,1.25,2.26,1.05,4.66,1.78,7.13,2.15,1.27.2,2.55.28,3.83.23.8,0,2.48-.57,3.19-.23,1.5.74,2.9,5.45,3.63,6.94,2.14,4.37,4.28,8.74,6.39,13.11.22,3.74.22,7.49,0,11.23Z"/><path class="cls-4_paypal-33" d="M338.8,245.62c-.18,2.45-.82,4.84-1.88,7.05-.31.56-.67,1.08-1.06,1.58-.86,1.12-1.88,2.13-2.66,3.31-2.28,3.49-2.02,8.07-1.68,12.27.37,4.66.8,9.42,2.62,13.63.65,1.22,1.09,2.54,1.29,3.91-1.71-.26-3.38-.69-5-1.28-.85-1.74-.99-3.73-.41-5.57-1.06-3.26-5.71-18.39-3.49-27.33.53-2.17,1.16-4.31,1.87-6.45.63-1.87.94-3.73,1.55-5.6.41-.85.54-1.8.38-2.73-.18-.56-.67-.96-1.25-1.02.38-.65.84-1.26,1.36-1.8,1.01-1.19,2.54-1.8,4.09-1.65.98.16,1.88.64,2.56,1.36,2.34,2.73,2.17,6.79,1.7,10.32Z"/><path class="cls-18_paypal-33" d="M340.05,220.69s-.23,1.04-2.73.87c0,0-2.11-.12-2.04-1.27,1.58-.47,3.29-.33,4.77.4Z"/><path class="cls-18_paypal-33" d="M307.34,241.93c-5.16-.41-10.27-1.38-15.22-2.89-2.33-.67-4.66-1.54-7.01-1.96-2.11-.27-4.01-1.45-5.19-3.22-1.09-1.66-1.7-3.94-3.54-4.61l.15,2.54c.05.29,0,.59-.15.85-.37.48-1.1.19-1.59-.14l-6.45-4.25c-.08,1.16.43,2.28,1.36,2.97.94.65,1.68,1.55,2.14,2.6-1.8-1.08-3.71-1.97-5.7-2.66-.06,1.06.46,2.07,1.36,2.63.89.52,1.68,1.19,2.34,1.98-1.66-.49-3.35-.83-5.07-1.01-.4.87.7,1.62,1.58,1.92l3.79,1.28c-1.52-.03-3.04.03-4.55.18.83,1.12,2.51.78,3.84,1.09,1.36.53,2.62,1.29,3.72,2.25,1.7.92,3.54,1.57,5.45,1.91,1.3.56,2.5,1.31,3.57,2.24,3.63,2.13,7.43,3.95,11.35,5.45,1.92.8,3.86,1.61,5.85,2.24,6.24,1.96,12.89,2.07,19.42,1.72,5-.11,9.89-1.45,14.26-3.9,3.83-2.15,5.29-8.01,4.65-12.27-.08-.95-.43-1.86-1.01-2.62-.59-.62-1.36-1.03-2.21-1.17-3.11-.64-6.11,1.24-8.91,2.73-5.56,3.08-11.89,4.51-18.24,4.13Z"/><path class="cls-16_paypal-33" d="M332.54,210.48l1.85-3.45c-.03,2.24,1.26,4.29,3.28,5.25.68.21,1.32.52,1.91.91.48.48.83,1.07,1.04,1.72,1.23,3.25,1.77,6.72,1.57,10.2-.34,6.01-4.46,17.3,1.47,21.74,2.18,1.4,4.7,2.21,7.29,2.33-.28,2.44-.4,4.89-.34,7.35-.11,2.52.48,5.03,1.7,7.24,2.36,3.58,7.44,4.38,11.3,2.73,1.07-.62,2.25-1.01,3.48-1.16,1.89,0,3.39,1.58,5.14,2.32,2.65.93,5.59.41,7.77-1.36,4.94-4.09,6.15-11.17,2.85-16.67-1.36-2.07-3.27-3.69-4.55-5.81-3.57-5.9.31-13.36-1.66-19.79-.87-2.86-2.74-5.31-5.27-6.9-2.88-1.79-6.62-2.47-8.5-5.33-2.51-3.8-.3-9.17-1.87-13.47-1.17-3.19-4.24-5.22-7.35-6.37-7.13-2.55-15.06-1.54-21.32,2.73-5.06,3.45-5.4,12.21.22,15.8Z"/><path class="cls-5_paypal-33" d="M343.95,422.26c-.12,1.65-.73,3.22-1.76,4.51-.17-.05-.33-.13-.48-.22,0,0-3.86-2.04-4.36-5.25s-13.86-100.93-13.43-108.32c.44-7.39,7.17-29.07,7.17-29.07l-.67,2.22c.55.22,2.73.83,3.91,1.09,5.57,1.2-2.1,4.89-3.68,9.12-1.57,4.97-2.28,10.18-2.1,15.39-.18,4.47.15,8.94.97,13.33.95,4.47,2.73,8.72,3.71,13.19,1.94,9.24,0,18.97,1.68,28.28.44,2.45,1.1,4.84,1.54,7.29.69,4.9.94,9.85.75,14.79,0,6.96.22,14.09,2.73,20.55,1.64,4.31,4.31,8.46,4.02,13.08Z"/><path class="cls-19_paypal-33 targetColor" d="M344.3,435.57c-1.28-.04-2.56-.23-3.8-.55-.5-.1-.99-.26-1.46-.48-1.1-.59-1.92-1.81-3.16-1.98-.53-.04-1.06.03-1.57.2l-2.59.68c-1.24.28-2.45.71-3.6,1.27-1.2.57-2.16,1.53-2.73,2.73-.2.46-.53,2.64-.19,3,.26.23.61.34.95.33,7.65.4,15.32.26,22.95-.42.42,0,.84-.1,1.21-.3.59-.37,1.01-2.73,1.12-3.37.29-1.76-.1-3.54-2.04-2.47-1.55.88-3.31,1.35-5.1,1.35Z" style="fill: rgb(108, 40, 201);"/><path class="cls-19_paypal-33 targetColor" d="M385.03,425.38c-.69,2.36-2.18,4.4-4.21,5.78-.91.76-2.14,1.02-3.28.7-.31-.17-.64-.33-.97-.46-.8-.13-1.6.17-2.13.79-.56.57-.98,1.27-1.58,1.79-1.12.74-2.34,1.32-3.63,1.72-1.21.57-2.4,1.76-2.17,3.11.29,1.74,2.48,2.21,4.2,2.21,3.66-.02,7.3-.34,10.9-.97.57-.05,1.12-.28,1.57-.64.41-.56.66-1.22.71-1.91.3-1.81,1.04-3.51,2.15-4.96,1.77-2.24,4.69-3.98,4.76-6.81,0-1.84-1.79-4.87-3.6-5.45s-2.32,3.52-2.73,5.12Z" style="fill: rgb(108, 40, 201);"/></g><g id="bubble_paypal-33"><path class="cls-7_paypal-33" d="M444.41,119.44v43.44c.14,8.37-6.54,15.27-14.91,15.4h0s-33.17,0-33.17,0l-14.99,21.71v-21.71h-28.21c-8.37-.14-15.05-7.03-14.92-15.4v-43.44c-.12-8.37,6.55-15.26,14.92-15.4h76.33c8.37.09,15.08,6.95,14.99,15.32,0,0,0,.02,0,.03l-.03.05Z"/><path class="cls-17_paypal-33" d="M439.55,119.44v43.44c.14,8.37-6.54,15.27-14.91,15.4h0s-33.15,0-33.15,0l-14.99,21.71v-21.71h-28.27c-8.38-.1-15.09-6.97-14.99-15.35,0,0,0,0,0,0v-43.49c-.13-8.38,6.56-15.27,14.94-15.4.02,0,.04,0,.06,0h76.33c8.37.09,15.08,6.95,14.99,15.32h0v.08Z"/><path class="cls-19_paypal-33 targetColor" d="M381.95,169.31l.27-6.96c-3.61-.18-7.1-1.39-10.05-3.49l1.76-4.53c2.74,2,6.01,3.16,9.4,3.34,4.74.18,8.01-2.48,8.18-6.39s-2.36-6.2-7.18-8.49c-6.68-3.01-10.74-6.34-10.51-12.27.22-5.68,4.29-9.84,10.45-10.62l.26-6.98,4.09.16-.26,6.64c3.03.16,5.97,1.1,8.53,2.73l-1.8,4.54c-2.45-1.67-5.32-2.62-8.29-2.73-5.11-.2-7.16,2.88-7.25,5.6-.14,3.56,2.25,5.45,7.89,8.18,6.81,3.15,10.05,6.81,9.81,12.96-.2,5.45-4.09,10.35-10.9,11.23l-.29,7.13-4.13-.05Z" style="fill: rgb(108, 40, 201);"/></g></svg>