<svg id="_0555_finance_analytics" xmlns="http://www.w3.org/2000/svg" xmlns:xlink="http://www.w3.org/1999/xlink" viewBox="0 0 500 500" data-imageid="personal-finance-29" imageName="Personal Finance" class="illustrations_image" style="width: 164px;"><defs><style>.cls-1_personal-finance-29{fill:url(#linear-gradient);}.cls-1_personal-finance-29,.cls-2_personal-finance-29,.cls-3_personal-finance-29,.cls-4_personal-finance-29,.cls-5_personal-finance-29,.cls-6_personal-finance-29,.cls-7_personal-finance-29,.cls-8_personal-finance-29,.cls-9_personal-finance-29,.cls-10_personal-finance-29,.cls-11_personal-finance-29,.cls-12_personal-finance-29,.cls-13_personal-finance-29,.cls-14_personal-finance-29,.cls-15_personal-finance-29,.cls-16_personal-finance-29,.cls-17_personal-finance-29,.cls-18_personal-finance-29,.cls-19_personal-finance-29,.cls-20_personal-finance-29,.cls-21_personal-finance-29,.cls-22_personal-finance-29{stroke-width:0px;}.cls-2_personal-finance-29{opacity:.18;}.cls-2_personal-finance-29,.cls-8_personal-finance-29{isolation:isolate;}.cls-2_personal-finance-29,.cls-8_personal-finance-29,.cls-22_personal-finance-29{fill:#68e1fd;}.cls-3_personal-finance-29{fill:url(#linear-gradient-11-personal-finance-29);}.cls-4_personal-finance-29{fill:url(#linear-gradient-12-personal-finance-29);}.cls-5_personal-finance-29{fill:url(#linear-gradient-13-personal-finance-29);}.cls-6_personal-finance-29{fill:url(#linear-gradient-10-personal-finance-29);}.cls-7_personal-finance-29{fill:url(#linear-gradient-14-personal-finance-29);}.cls-8_personal-finance-29{opacity:.39;}.cls-9_personal-finance-29{fill:url(#linear-gradient-4-personal-finance-29);}.cls-10_personal-finance-29{fill:url(#linear-gradient-2-personal-finance-29);}.cls-11_personal-finance-29{fill:url(#linear-gradient-3-personal-finance-29);}.cls-12_personal-finance-29{fill:url(#linear-gradient-8-personal-finance-29);}.cls-13_personal-finance-29{fill:url(#linear-gradient-9-personal-finance-29);}.cls-14_personal-finance-29{fill:url(#linear-gradient-7-personal-finance-29);}.cls-15_personal-finance-29{fill:url(#linear-gradient-5-personal-finance-29);}.cls-16_personal-finance-29{fill:url(#linear-gradient-6-personal-finance-29);}.cls-17_personal-finance-29{fill:#f9c6d6;}.cls-18_personal-finance-29{fill:#473f47;}.cls-19_personal-finance-29{fill:#565056;}.cls-20_personal-finance-29{fill:#231f20;}.cls-21_personal-finance-29{fill:#fff;}</style><linearGradient id="linear-gradient-personal-finance-29" x1="-1394.74" y1="4342.43" x2="-352.34" y2="3562.8" gradientTransform="translate(1264.76 4346.65) scale(1 -1)" gradientUnits="userSpaceOnUse"><stop offset="0" stop-color="#000"/><stop offset=".08" stop-color="#000" stop-opacity=".69"/><stop offset=".21" stop-color="#000" stop-opacity=".32"/><stop offset="1" stop-color="#000" stop-opacity="0"/></linearGradient><linearGradient id="linear-gradient-2-personal-finance-29" x1="-1003.88" y1="3964.63" x2="-999.78" y2="3961.57" xlink:href="#linear-gradient-personal-finance-29"/><linearGradient id="linear-gradient-3-personal-finance-29" x1="-1044.19" y1="4115.93" x2="-936" y2="3772.32" xlink:href="#linear-gradient-personal-finance-29"/><linearGradient id="linear-gradient-4-personal-finance-29" x1="-1007.07" y1="4222.27" x2="-1073.24" y2="3775.09" gradientTransform="translate(1289 4387.76) scale(1 -1)" xlink:href="#linear-gradient-personal-finance-29"/><linearGradient id="linear-gradient-5-personal-finance-29" x1="-1072.67" y1="4159.75" x2="-1123.65" y2="3815.18" gradientTransform="translate(1289 4387.76) scale(1 -1)" xlink:href="#linear-gradient-personal-finance-29"/><linearGradient id="linear-gradient-6-personal-finance-29" x1="-1083.86" y1="4016.31" x2="-1110.98" y2="3946.57" xlink:href="#linear-gradient-personal-finance-29"/><linearGradient id="linear-gradient-7-personal-finance-29" x1="-963.91" y1="4292.1" x2="-847.71" y2="3277.26" xlink:href="#linear-gradient-personal-finance-29"/><linearGradient id="linear-gradient-8-personal-finance-29" x1="-1051.56" y1="4075.85" x2="-830.49" y2="3999.35" xlink:href="#linear-gradient-personal-finance-29"/><linearGradient id="linear-gradient-9-personal-finance-29" x1="208.71" y1="292.08" x2="290.27" y2="292.08" gradientUnits="userSpaceOnUse"><stop offset="0" stop-color="#fff" stop-opacity="0"/><stop offset="1" stop-color="#fff"/></linearGradient><linearGradient id="linear-gradient-10-personal-finance-29" x1="214.88" y1="284.47" x2="283.98" y2="284.47" gradientTransform="translate(530.3 31) rotate(89.18)" xlink:href="#linear-gradient-9-personal-finance-29"/><linearGradient id="linear-gradient-11-personal-finance-29" x1="202.3" y1="275.75" x2="283.88" y2="275.75" xlink:href="#linear-gradient-9-personal-finance-29"/><linearGradient id="linear-gradient-12-personal-finance-29" x1="208.49" y1="268.08" x2="277.59" y2="268.08" gradientTransform="translate(507.61 21.23) rotate(89.18)" xlink:href="#linear-gradient-9-personal-finance-29"/><linearGradient id="linear-gradient-13-personal-finance-29" x1="221.17" y1="267.9" x2="302.74" y2="267.9" xlink:href="#linear-gradient-9-personal-finance-29"/><linearGradient id="linear-gradient-14-personal-finance-29" x1="227.36" y1="260.29" x2="296.46" y2="260.29" gradientTransform="translate(518.43 -5.31) rotate(89.18)" xlink:href="#linear-gradient-9-personal-finance-29"/></defs><g id="background_personal-finance-29"><path class="cls-2_personal-finance-29 targetColor" d="M464.91,277.09c-1.97-3.69-4.04-7.33-6.22-10.9-2.05-3.41-4.16-6.74-6.34-10-9.49-14.22-20.02-28.22-24.66-44.67-5.73-20.36,0-42.93-6.15-62.61-5.22-17.12-21.13-35.02-33.13-47.69-26.52-28.17-62.68-48.75-102.2-48.23-7.6.14-15.18.91-22.66,2.31-14.8,2.69-29.33,7.37-43.62,12.2-36.2,12.27-72.5,25.94-103.54,48.25-31.05,22.31-56.65,54.42-63.7,91.98-3.66,19.39-2.34,39.83-8.63,58.58-7.53,22.43-24.26,37.17-29.58,60.48-6.12,26.82.28,58.52,22.75,74.38,11.7,8.24,26.31,11.31,40.45,12.99,35.65,4.13,71.77.66,105.98-10.19,19.29-6.13,38.39-14.67,58.63-14.75,21.8-.1,42.22,9.61,62.55,17.48,31.1,12.05,64.82,20.22,97.75,14.94,32.93-5.28,64.87-26.31,75.69-57.82,9.85-28.64,1.18-59.4-13.39-86.72Z" style="fill: rgb(108, 40, 201);"/><path class="cls-1_personal-finance-29" d="M464.91,277.09c-6.81,2.77-13.97,5.37-18.39,8.49l-104.57,73.45c-8.02,5.79-16.38,11.1-25.02,15.9-7.05,3.81-11.08,11.08-19.61,13.02-4.24.74-8.58.66-12.8-.22-6.88-1.12-13.64-2.84-20.22-5.14-.82-.28-1.95-.44-2.31.33h0c-60.93-8.31-119.22-30.47-179.64-41.97-1.8-.33-2.98-2.06-2.65-3.86.21-1.12.97-2.05,2.03-2.47,5.06-1.79,10.28-3.07,15.59-3.82,9.69-1.79,19.26-3.53,28.93-5.11,19.48-3.37,39.15-5.56,58.9-6.54,32.79-1.38,65.88,2.12,98.32-2.96,30.78-4.78,59.85-17.12,88.53-29.4,6.92-2.96,13.96-6.04,19.39-11.24,4.24-4.07,7.66-9.47,13.07-12.16,5.41-2.69,12.46-2.28,18.5-2.01,12.01.82,23.95,2.42,35.74,4.79,2.21,3.59,4.27,7.23,6.2,10.93Z"/></g><g id="laptop_personal-finance-29"><path class="cls-10_personal-finance-29" d="M261.98,382.96l.91.12c.66.53-1.19.64-.91-.12Z"/><path class="cls-22_personal-finance-29 targetColor" d="M85.06,320.35l136.88-59.55c2.96-1.49,6.31-2.05,9.6-1.59l169.3,14.39c3.24.46,2.66,14.39,0,16.62l-99.96,85.19c-6.13,5.37-14.47,7.43-22.39,5.54l-192.21-46.72c-2.45-.6-3.5-12.73-1.2-13.88Z" style="fill: rgb(108, 40, 201);"/><path class="cls-11_personal-finance-29" d="M85.06,320.35l136.88-59.55c2.96-1.49,6.31-2.05,9.6-1.59l169.3,14.39c3.24.46,2.66,14.39,0,16.62l-99.96,85.19c-6.13,5.37-14.47,7.43-22.39,5.54l-192.21-46.72c-2.45-.6-3.5-12.73-1.2-13.88Z"/><path class="cls-22_personal-finance-29 targetColor" d="M400.87,280.36l-100,85.11c-6.11,5.39-14.45,7.48-22.38,5.61l-192.24-46.72c-2.45-.6-2.77-4.47-.48-5.62l52.72-29.73,13.85-7.78,42.11-23.74c2.96-1.49,6.3-2.05,9.58-1.59l195.12,17.05c3.24.39,4.33,5.19,1.72,7.42Z" style="fill: rgb(108, 40, 201);"/><polygon class="cls-9_personal-finance-29" points="204.01 260.6 382.38 286.98 327.48 331.57 144.41 294.52 204.01 260.6"/><polygon class="cls-15_personal-finance-29" points="185.34 305.58 258.85 320.43 220.84 351.45 144.41 334.3 185.34 305.58"/><path class="cls-16_personal-finance-29" d="M148.58,339.66c1.52,3.06,4.28,5.32,7.58,6.2,5.4,1.3,36.88,9.36,36.88,9.36,0,0,5.12.61,7.96-2.77l-52.42-12.8Z"/><path class="cls-22_personal-finance-29 targetColor" d="M198.4,255.87l201.3,28.64c3.07.44,5.94-1.6,6.54-4.64l28.72-145.02c1.21-6.08-2.74-12-8.83-13.2-.4-.08-.81-.14-1.21-.17l-198.79-17.49c-6.09-.53-11.48,3.9-12.14,9.97l-15.58,141.92Z" style="fill: rgb(108, 40, 201);"/><path class="cls-14_personal-finance-29" d="M198.4,255.87l200.8,28.57c3.37.48,6.52-1.76,7.19-5.1l28.61-144.49c1.21-6.08-2.74-12-8.83-13.2-.4-.08-.81-.14-1.21-.17l-198.83-17.49c-6.09-.53-11.48,3.9-12.14,9.97l-15.58,141.92Z"/><polygon class="cls-21_personal-finance-29" points="396.1 276.19 424.7 129.85 221.95 111.13 205.83 249.68 396.1 276.19"/></g><g id="data_personal-finance-29"><path class="cls-22_personal-finance-29 targetColor" d="M234.58,205.16c-.65-.46,2.77-23.31,2.77-23.31l11.62,1.14-2.98,22.96-11.41-.79Z" style="fill: rgb(108, 40, 201);"/><path class="cls-22_personal-finance-29 targetColor" d="M257.8,207.42c-.65-.47,5.15-34.62,5.15-34.62l11.62,1.14-5.32,34.34-11.45-.86Z" style="fill: rgb(108, 40, 201);"/><path class="cls-22_personal-finance-29 targetColor" d="M281.02,209.66c-.64-.46,8.63-61.35,8.63-61.35l11.62,1.14-8.79,61-11.45-.79Z" style="fill: rgb(108, 40, 201);"/><path class="cls-22_personal-finance-29 targetColor" d="M304.25,211.92c-.64-.46,6.65-46.27,6.65-46.27l11.62,1.14-6.81,45.92-11.45-.79Z" style="fill: rgb(108, 40, 201);"/><path class="cls-22_personal-finance-29 targetColor" d="M315.92,219.01l-90.98-6.61.08-.55c.94-7.26,9.25-70.92,9.69-72.09l1,.32c-.35,1.38-6.34,46.93-9.53,71.36l89.85,6.51-.11,1.07Z" style="fill: rgb(108, 40, 201);"/><path class="cls-8_personal-finance-29 targetColor" d="M354.42,239.7l2.13-11.2c-5.89.13-11.68-1.52-16.62-4.74l4.15-7.44c4.56,3.11,9.98,4.73,15.5,4.64,8.2,0,14.53-4.61,15.73-10.93,1.2-6.31-2.58-9.83-10.4-13.13-10.86-4.35-17.09-9.4-15.23-19.01,1.76-9.2,9.85-16.22,20.77-18l2.13-11.18h7.1l-2.15,10.75c4.97-.04,9.86,1.26,14.15,3.78l-4.22,7.45c-4.11-2.56-8.88-3.84-13.72-3.68-8.82,0-13.1,5.18-13.95,9.6-1.11,5.76,2.59,8.61,11.77,12.53,10.93,4.57,15.77,10.28,13.85,20.14-1.66,8.75-9.56,17.01-21.69,18.97l-2.12,11.45h-7.2Z" style="fill: rgb(108, 40, 201);"/></g><g id="character_personal-finance-29"><path class="cls-17_personal-finance-29" d="M190.03,336.9c-.08.78.18,1.55.72,2.12.29.2.62.34.97.4.91.18,1.84.24,2.77.17,1.72-.12,3.43-.37,5.11-.73l2.91-.55c.37-.02.71-.19.96-.47.17-.37.1-.81-.17-1.12-.5-.57-1.15-.99-1.87-1.22-1.74-.71-3.53-1.28-5.36-1.7-.3-.05-.59-.16-.84-.33-.36-.32-.43-.86-.68-1.29-.51-.74-1.42-1.09-2.3-.89-.83.17-2.04.73-2.23,1.65-.14,1.32-.14,2.65.01,3.97Z"/><path class="cls-19_personal-finance-29" d="M199.39,334.13c-.6-.16-1.24.02-1.68.46-.47.71.15,1.83-.43,2.46-.36.29-.82.43-1.27.37h-3.23c-.86.04-1.72-.03-2.56-.21-.19-.07-.4-.1-.61-.07-.29.09-.49.34-.53.64-.03.29,0,.59.12.86.2.59.5,1.13.89,1.62.1.15.23.27.39.36.18.07.37.1.57.1,1.9,0,3.79,0,5.69-.08,1.32-.1,2.62-.29,3.93-.4,1.89,0,3.76-.33,5.54-.96.47-.16.86-.51,1.07-.96.11-.42.03-.86-.24-1.2-.26-.33-.58-.61-.94-.82-1.04-.66-2.17-1.15-3.37-1.45-1.1-.32-2.22-.56-3.35-.72Z"/><path class="cls-17_personal-finance-29" d="M154.92,333.35c-.01.07-.01.14,0,.21.11,2.55,3.49,2.62,5.3,2.52,1.72-.12,3.43-.36,5.12-.72l2.89-.55c.37-.03.71-.2.96-.48.17-.37.1-.8-.17-1.11-.49-.57-1.14-1-1.86-1.23-1.57-.6-3.16-1.12-4.78-1.55-1.38-.43-.24-2.41-.08-3.46.07-.21.07-.43,0-.64-.16-.23-.39-.39-.66-.46-.84-.29-1.72-.45-2.6-.47-.18-.02-.35.01-.51.1-.14.11-.25.26-.3.43l-2.77,5.9c-.27.47-.46.99-.54,1.52Z"/><path class="cls-18_personal-finance-29" d="M156.15,258.27s-2.06,11.63,2.2,20.37c2.24,4.69,4.74,9.25,7.49,13.67,0,0-8.89,9.61-8.89,21.73s-.22,12.67-.22,12.67l5.33,2.77,13.29-37.15s.8-5.26,0-7.05-7.62-22.03-7.62-22.03l-11.59-4.97Z"/><path class="cls-18_personal-finance-29" d="M204.44,211.06c-2.77,0-5.77-2.94-7.45-7.48-1.94-5.25-1.11-10.07,1.94-11.19,3.05-1.12,6.8,1.99,8.74,7.26h0c1.94,5.25,1.11,10.07-1.94,11.19-.41.15-.85.22-1.29.22ZM200.29,194.65c-.15,0-.29.02-.43.07-1.38.53-1.94,4.06-.48,8,1.45,3.95,4.15,6.31,5.54,5.79,1.38-.53,1.94-4.06.48-8h0c-1.4-3.59-3.73-5.86-5.21-5.86h.1Z"/><path class="cls-18_personal-finance-29" d="M215.38,222.6c-.38,0-.74-.16-.98-.46l-9.17-11.52c-.42-.54-.33-1.31.2-1.74.54-.42,1.31-.33,1.74.2l9.17,11.58c.43.52.35,1.29-.16,1.72-.22.18-.5.28-.79.28v-.06Z"/><path class="cls-17_personal-finance-29" d="M199.12,205.44c.15,1.22.2,2.44.15,3.67-.23.95-.81,1.79-1.62,2.34-.81.55-1.72.94-2.67,1.16-.28.06-.55.17-.79.33-.34.41-.49.94-.42,1.47v3.13c.04.33-.04.65-.22.93-.15.15-.33.26-.54.3-1.57.36-3.17-.45-3.81-1.92-.37-.69-.77-1.36-1.2-2.01-.42-.87-.66-1.81-.72-2.77-.32-3.01.25-6.04,1.62-8.74.85-1.71,2.1-3.2,3.63-4.35,1.23-.89,3.61-2.2,4.87-.68.62.75.61,1.87,1.19,2.66.42.57,1.16.97,1.27,1.66s-.35,1.19-.55,1.77c-.13.33-.19.68-.19,1.04Z"/><path class="cls-17_personal-finance-29" d="M208.32,211.78c0-.06,0-.13,0-.19.01-.72.28-1.41.76-1.95.5-.54,1.31-.66,1.94-.28.24.17.42.44.69.57s.87,0,1.16.33.21.61.35.9.54.55.8.83c1.3,1.38-.14,3.92-.65,5.35-.78,2.13-1.54,4.28-2.17,6.47-.77.11-1.55-.04-2.22-.43-.24-.15-.46-.33-.64-.55-.43-.76-.52-1.67-.25-2.51.16-.63.21-1.28.14-1.92-.19-.7-.42-1.38-.69-2.05-.19-.57-.36-1.29.08-1.69.18-.11.34-.24.5-.37.11-.16.17-.36.17-.55.06-.65,0-1.3.03-1.94Z"/><path class="cls-19_personal-finance-29" d="M183,263.24l12.92,29.08-.54,41.18-5.93-.43s-10.14-23.43-3.61-37.94c0,0-15.66-13.39-21.45-21.01-7.1-9.38-5.54-17.24-5.54-17.24l24.15,6.36Z"/><path class="cls-22_personal-finance-29 targetColor" d="M188.99,213.22c1.59.37,3.12.91,4.58,1.63,4.96,2.28,5.18,6.2,6.92,10.9,1.11,2.99,2.37,5.92,3.78,8.78l2.4-14.15,6.62,2.69s.66,20.88-4.15,23.69c-3.13,1.8-7.52-.3-10.36-1.76-1.04-.53-2.77-2.12-3.86-2.27-2.12-.29-2.26,2.23-4.15,3.7-1.23.72-2.4,1.52-3.52,2.4-1.05,1.21-1.84,2.62-2.31,4.15-.53,1.89-.69,3.88-.46,5.83.3,1.32.02,2.71-.78,3.81-.55.46-1.21.76-1.92.86-2.36.34-4.75.31-7.1-.08-4.66-.37-9.27-1.19-13.77-2.46-1.64-.51-3.24-1.12-4.79-1.84-.34-.14-.65-.35-.91-.6-.28-.33-.47-.73-.54-1.16-.62-2.85,1.38-5.54,2.48-8.21.69-1.83.91-3.82,1.54-5.68.81-1.89,1.87-3.67,3.13-5.29.93-1.38,1.38-3.16,2.38-4.65,2.49-3.83,5.27-7.47,8.31-10.88,1.77-2.2,3.75-4.23,5.9-6.07,2.45-2.18,5.6-3.41,8.88-3.49.58,0,1.15.06,1.72.17Z" style="fill: rgb(108, 40, 201);"/><path class="cls-20_personal-finance-29" d="M183.41,186.69c-1.72.24-3.36.92-4.75,1.97-3.03,2.46-3.73,6.92-6.61,9.57-2.46,2.23-6.02,2.67-9.33,3.02,2.24,6.43,9.26,9.83,15.69,7.59.03,0,.06-.02.08-.03l-3.39,3.38c-.09.07-.15.17-.18.28,0,.22.21.36.42.43,1.57.58,3.3.54,4.85-.11.05,1.49,1.16,2.72,2.63,2.92,1,.14,2.02.02,2.96-.36.52-.21,1.08-.31,1.65-.29.47,0,.9.25,1.38.08,1.44-.9,2.59-2.2,3.32-3.73,1.09-2.46-.51-5.54.8-7.98,1.09-1.94,4.53-2.52,5.04-4.71.55-2.42-.76-5.97-2.16-7.88-1.59-2.18-3.94-3.69-6.58-4.24-1.55-.27-3.12-.31-4.68-.1l-1.15.18Z"/><path class="cls-19_personal-finance-29" d="M164.6,330.18c-.6-.16-1.24.02-1.68.47-.47.69.15,1.81-.43,2.45-.35.3-.82.44-1.27.37h-3.23c-.86.05-1.72-.02-2.56-.21-.2-.06-.4-.09-.61-.07-.29.09-.49.34-.53.64-.03.29.01.59.12.86.2.59.5,1.13.89,1.62.1.14.24.27.39.36.18.07.37.1.57.1,1.9,0,3.79,0,5.69-.08,1.38-.1,2.62-.29,3.93-.39,1.89,0,3.76-.34,5.54-.97.47-.16.86-.51,1.07-.96.11-.42.03-.86-.24-1.2-.26-.33-.58-.61-.94-.82-1.04-.66-2.17-1.15-3.37-1.45-1.1-.31-2.22-.55-3.35-.72Z"/></g><g id="coins_personal-finance-29"><path class="cls-12_personal-finance-29" d="M275.62,307.47c7.58-1.64,14.84-4.55,21.45-8.6,1.83-1.16,3.84-3.25,2.77-5.17-.72-1.38-2.49-1.76-3.05-3.21,2.42-.98,5.08-.53,7.28-2.42,2.2-1.9,2.44-5.54.1-6.92,1.84-.12,3.61-.71,5.15-1.72,1.54-1.07,2.17-3.05,1.54-4.82-.84-1.76-3.06-2.26-4.97-2.56-2.68-.53-5.4-.74-8.13-.65-3.12.28-6.14,1.22-8.86,2.77-2.55,1.38-4.61,3.79-7.15,5.07-5.18,2.6-11.98,2.31-17.55,3.53-4.15.9-8.17,2.46-12.26,3.7-4.09,1.23-7.96,2.12-11.99,3.01-9.75,2.14-19.52,4.17-29.32,6.09.64,4.36,5.3,6.77,9.39,8.42,5.67,2.48,11.6,4.34,17.67,5.54,4.76.69,9.57.91,14.37.65,7.92-.14,15.8-1.04,23.54-2.7Z"/><path class="cls-13_personal-finance-29" d="M249.48,308.65c-22.39-.32-40.45-7.98-40.31-17.13,0-1.01-.76-6.76-.32-7.67,3.53-7.67,21.19-8.57,41.1-8.31,19.6.29,36.01,0,39.72,7.58.54,1.08.62,8.45.61,9.54-.12,9.17-18.39,16.29-40.8,15.99Z"/><ellipse class="cls-22_personal-finance-29 targetColor" cx="249.43" cy="284.47" rx="16.55" ry="40.56" transform="translate(-38.58 529.81) rotate(-89.18)" style="fill: rgb(108, 40, 201);"/><ellipse class="cls-6_personal-finance-29" cx="249.43" cy="284.47" rx="14.1" ry="34.55" transform="translate(-38.58 529.81) rotate(-89.18)"/><path class="cls-22_personal-finance-29 targetColor" d="M227.64,282.82l5.54.08c.22-1.46,1.14-2.72,2.46-3.38l3.67.57c-1.29.59-2.2,1.79-2.4,3.2,0,1.59,2.22,2.77,5.32,2.77,2.43.17,4.81-.73,6.52-2.46,2.47-2.57,5.99-3.88,9.54-3.55,4.54,0,7.99,1.38,8.79,3.49l5.54.08v1.38l-5.33-.08c-.17,1.22-.89,2.29-1.95,2.89l-3.6-.61c1.03-.57,1.73-1.6,1.88-2.77,0-1.7-2.48-2.41-4.68-2.44-2.4-.14-4.73.86-6.29,2.69-2.33,2.26-5.21,3.38-10.14,3.38-4.35,0-8.46-1.38-9.29-3.67l-5.69-.08.1-1.5Z" style="fill: rgb(108, 40, 201);"/><path class="cls-3_personal-finance-29" d="M243.08,292.32c-22.39-.32-40.45-7.98-40.31-17.13,0-1.01-.76-6.76-.33-7.67,3.55-7.67,21.2-8.57,41.12-8.31,19.6.29,36.01,0,39.72,7.58.54,1.08.62,8.45.61,9.54-.12,9.07-18.39,16.24-40.8,15.99Z"/><ellipse class="cls-22_personal-finance-29 targetColor" cx="243.04" cy="268.08" rx="16.55" ry="40.56" transform="translate(-28.49 507.25) rotate(-89.18)" style="fill: rgb(108, 40, 201);"/><ellipse class="cls-4_personal-finance-29" cx="243.04" cy="268.08" rx="14.1" ry="34.55" transform="translate(-28.49 507.25) rotate(-89.18)"/><path class="cls-22_personal-finance-29 targetColor" d="M221.24,266.43l5.54.08c.22-1.46,1.14-2.72,2.46-3.38l3.67.57c-1.29.59-2.2,1.79-2.4,3.2,0,1.59,2.22,2.77,5.32,2.77,2.44.2,4.85-.69,6.58-2.44,2.47-2.58,5.99-3.89,9.54-3.55,4.54,0,7.99,1.38,8.79,3.49l5.54.08v1.38l-5.33-.08c-.17,1.22-.89,2.29-1.95,2.89l-3.6-.61c1.03-.57,1.73-1.6,1.88-2.77,0-1.69-2.48-2.4-4.68-2.42-2.4-.14-4.73.86-6.29,2.69-2.33,2.26-5.21,3.38-10.14,3.38-4.35,0-8.46-1.38-9.29-3.67l-5.69-.08.04-1.54Z" style="fill: rgb(108, 40, 201);"/><path class="cls-5_personal-finance-29" d="M261.95,284.47c-22.41-.33-40.46-7.99-40.33-17.13,0-1.01-.76-6.76-.32-7.67,3.53-7.67,21.2-8.57,41.12-8.31,19.6.29,36.01,0,39.7,7.58.54,1.08.62,8.46.61,9.56-.11,9.14-18.39,16.3-40.78,15.98Z"/><ellipse class="cls-22_personal-finance-29 targetColor" cx="261.91" cy="260.29" rx="16.55" ry="40.56" transform="translate(-2.11 518.45) rotate(-89.18)" style="fill: rgb(108, 40, 201);"/><ellipse class="cls-7_personal-finance-29" cx="261.91" cy="260.29" rx="14.1" ry="34.55" transform="translate(-2.11 518.45) rotate(-89.18)"/><path class="cls-22_personal-finance-29 targetColor" d="M240.1,258.63l5.54.08c.22-1.46,1.14-2.72,2.46-3.38l3.67.58c-1.29.6-2.19,1.8-2.41,3.2,0,1.58,2.22,2.7,5.33,2.77,2.44.2,4.85-.69,6.58-2.44,2.47-2.57,5.98-3.88,9.53-3.55,4.56,0,8,1.38,8.79,3.5l5.54.08v1.38l-5.32-.08c-.18,1.22-.9,2.28-1.97,2.89l-3.6-.61c1.03-.57,1.73-1.6,1.9-2.77,0-1.69-2.49-2.4-4.68-2.44-2.4-.13-4.72.86-6.29,2.69-2.34,2.27-5.21,3.39-10.15,3.39-4.35,0-8.45-1.38-9.28-3.67l-5.69-.08.04-1.56Z" style="fill: rgb(108, 40, 201);"/></g></svg>